<mxfile host="app.diagrams.net" modified="2024-01-01T18:27:47.174Z" agent="Mozilla/5.0 (Windows NT 10.0; Win64; x64) AppleWebKit/537.36 (KHTML, like Gecko) Chrome/120.0.0.0 Safari/537.36 Edg/120.0.0.0" etag="YnvZE-ds-apHPFXz1UVB" version="22.1.16" type="github">
  <diagram name="Page-1" id="2MzUOne32Nm8aTffG3sm">
    <mxGraphModel dx="3394" dy="1220" grid="1" gridSize="10" guides="1" tooltips="1" connect="1" arrows="1" fold="1" page="1" pageScale="1" pageWidth="3300" pageHeight="2339" math="0" shadow="0">
      <root>
        <mxCell id="0" />
        <mxCell id="1" parent="0" />
        <mxCell id="hmCfqt4P9ejDFXZvc0nD-2" value="" style="html=1;verticalLabelPosition=bottom;align=center;labelBackgroundColor=#ffffff;verticalAlign=top;strokeWidth=2;strokeColor=#0080F0;shadow=0;dashed=0;shape=mxgraph.ios7.icons.user;" vertex="1" parent="1">
          <mxGeometry x="20" y="350" width="30" height="30" as="geometry" />
        </mxCell>
        <mxCell id="hmCfqt4P9ejDFXZvc0nD-4" value="" style="outlineConnect=0;dashed=0;verticalLabelPosition=bottom;verticalAlign=top;align=center;html=1;shape=mxgraph.aws3.api_gateway;fillColor=#D9A741;gradientColor=none;" vertex="1" parent="1">
          <mxGeometry x="30" y="250" width="76.5" height="93" as="geometry" />
        </mxCell>
        <mxCell id="hmCfqt4P9ejDFXZvc0nD-22" value="" style="group" vertex="1" connectable="0" parent="1">
          <mxGeometry x="10" width="140" height="87" as="geometry" />
        </mxCell>
        <mxCell id="hmCfqt4P9ejDFXZvc0nD-11" value="" style="rounded=1;whiteSpace=wrap;html=1;" vertex="1" parent="hmCfqt4P9ejDFXZvc0nD-22">
          <mxGeometry y="27" width="120" height="60" as="geometry" />
        </mxCell>
        <mxCell id="hmCfqt4P9ejDFXZvc0nD-12" value="" style="shape=image;html=1;verticalAlign=top;verticalLabelPosition=bottom;labelBackgroundColor=#ffffff;imageAspect=0;aspect=fixed;image=https://cdn2.iconfinder.com/data/icons/boxicons-logos/24/bxl-spring-boot-128.png;fontColor=#00CC00;movable=1;resizable=1;rotatable=1;deletable=1;editable=1;locked=0;connectable=1;" vertex="1" parent="hmCfqt4P9ejDFXZvc0nD-22">
          <mxGeometry x="10" y="33.5" width="50" height="50" as="geometry" />
        </mxCell>
        <mxCell id="hmCfqt4P9ejDFXZvc0nD-13" value="" style="sketch=0;pointerEvents=1;shadow=0;dashed=0;html=1;strokeColor=none;labelPosition=center;verticalLabelPosition=bottom;verticalAlign=top;outlineConnect=0;align=center;shape=mxgraph.office.security.lock_protected;fillColor=#7FBA42;movable=1;resizable=1;rotatable=1;deletable=1;editable=1;locked=0;connectable=1;" vertex="1" parent="hmCfqt4P9ejDFXZvc0nD-22">
          <mxGeometry x="70" y="33.5" width="40" height="47" as="geometry" />
        </mxCell>
        <mxCell id="hmCfqt4P9ejDFXZvc0nD-14" value="&lt;div style=&quot;text-align: center;&quot;&gt;&lt;b&gt;&lt;font style=&quot;font-size: 11px;&quot;&gt;Any User&lt;/font&gt;&lt;/b&gt;&lt;/div&gt;" style="text;whiteSpace=wrap;html=1;" vertex="1" parent="hmCfqt4P9ejDFXZvc0nD-22">
          <mxGeometry x="30" width="110" height="40" as="geometry" />
        </mxCell>
        <mxCell id="hmCfqt4P9ejDFXZvc0nD-23" value="" style="group" vertex="1" connectable="0" parent="1">
          <mxGeometry x="10" y="130" width="130" height="90" as="geometry" />
        </mxCell>
        <mxCell id="hmCfqt4P9ejDFXZvc0nD-3" value="" style="rounded=1;whiteSpace=wrap;html=1;" vertex="1" parent="hmCfqt4P9ejDFXZvc0nD-23">
          <mxGeometry y="30" width="120" height="60" as="geometry" />
        </mxCell>
        <mxCell id="hmCfqt4P9ejDFXZvc0nD-5" value="" style="shape=image;html=1;verticalAlign=top;verticalLabelPosition=bottom;labelBackgroundColor=#ffffff;imageAspect=0;aspect=fixed;image=https://cdn2.iconfinder.com/data/icons/boxicons-logos/24/bxl-spring-boot-128.png;fontColor=#00CC00;" vertex="1" parent="hmCfqt4P9ejDFXZvc0nD-23">
          <mxGeometry x="10" y="35" width="50" height="50" as="geometry" />
        </mxCell>
        <mxCell id="hmCfqt4P9ejDFXZvc0nD-6" value="&lt;div style=&quot;text-align: center;&quot;&gt;&lt;b&gt;&lt;font style=&quot;font-size: 11px;&quot;&gt;Authentication&lt;/font&gt;&lt;/b&gt;&lt;/div&gt;" style="text;whiteSpace=wrap;html=1;" vertex="1" parent="hmCfqt4P9ejDFXZvc0nD-23">
          <mxGeometry x="20" width="110" height="40" as="geometry" />
        </mxCell>
        <mxCell id="hmCfqt4P9ejDFXZvc0nD-7" value="" style="sketch=0;pointerEvents=1;shadow=0;dashed=0;html=1;strokeColor=none;labelPosition=center;verticalLabelPosition=bottom;verticalAlign=top;outlineConnect=0;align=center;shape=mxgraph.office.security.lock_protected;fillColor=#7FBA42;" vertex="1" parent="hmCfqt4P9ejDFXZvc0nD-23">
          <mxGeometry x="70" y="35" width="40" height="47" as="geometry" />
        </mxCell>
        <mxCell id="hmCfqt4P9ejDFXZvc0nD-31" value="" style="group" vertex="1" connectable="0" parent="1">
          <mxGeometry x="290" y="30" width="140" height="87" as="geometry" />
        </mxCell>
        <mxCell id="hmCfqt4P9ejDFXZvc0nD-32" value="" style="rounded=1;whiteSpace=wrap;html=1;" vertex="1" parent="hmCfqt4P9ejDFXZvc0nD-31">
          <mxGeometry y="27" width="120" height="60" as="geometry" />
        </mxCell>
        <mxCell id="hmCfqt4P9ejDFXZvc0nD-33" value="" style="shape=image;html=1;verticalAlign=top;verticalLabelPosition=bottom;labelBackgroundColor=#ffffff;imageAspect=0;aspect=fixed;image=https://cdn2.iconfinder.com/data/icons/boxicons-logos/24/bxl-spring-boot-128.png;fontColor=#00CC00;movable=1;resizable=1;rotatable=1;deletable=1;editable=1;locked=0;connectable=1;" vertex="1" parent="hmCfqt4P9ejDFXZvc0nD-31">
          <mxGeometry x="10" y="33.5" width="50" height="50" as="geometry" />
        </mxCell>
        <mxCell id="hmCfqt4P9ejDFXZvc0nD-34" value="" style="sketch=0;pointerEvents=1;shadow=0;dashed=0;html=1;strokeColor=none;labelPosition=center;verticalLabelPosition=bottom;verticalAlign=top;outlineConnect=0;align=center;shape=mxgraph.office.security.lock_protected;fillColor=#7FBA42;movable=1;resizable=1;rotatable=1;deletable=1;editable=1;locked=0;connectable=1;" vertex="1" parent="hmCfqt4P9ejDFXZvc0nD-31">
          <mxGeometry x="70" y="33.5" width="40" height="47" as="geometry" />
        </mxCell>
        <mxCell id="hmCfqt4P9ejDFXZvc0nD-35" value="&lt;div style=&quot;text-align: center;&quot;&gt;&lt;font style=&quot;font-size: 11px;&quot;&gt;&lt;b&gt;Template&lt;/b&gt;&lt;/font&gt;&lt;/div&gt;&lt;span style=&quot;color: rgb(0, 0, 0); font-family: Helvetica; font-style: normal; font-variant-ligatures: normal; font-variant-caps: normal; font-weight: 400; letter-spacing: normal; orphans: 2; text-indent: 0px; text-transform: none; widows: 2; word-spacing: 0px; -webkit-text-stroke-width: 0px; background-color: rgb(251, 251, 251); text-decoration-thickness: initial; text-decoration-style: initial; text-decoration-color: initial; float: none; display: inline !important;&quot;&gt;&lt;font style=&quot;font-size: 9px;&quot;&gt;(Customized page appearance)&lt;/font&gt;&lt;br&gt;&lt;/span&gt;" style="text;whiteSpace=wrap;html=1;" vertex="1" parent="hmCfqt4P9ejDFXZvc0nD-31">
          <mxGeometry y="-16" width="140" height="43" as="geometry" />
        </mxCell>
        <mxCell id="hmCfqt4P9ejDFXZvc0nD-50" value="" style="group" vertex="1" connectable="0" parent="1">
          <mxGeometry x="330" y="150" width="90" height="100" as="geometry" />
        </mxCell>
        <mxCell id="hmCfqt4P9ejDFXZvc0nD-37" value="" style="dashed=0;outlineConnect=0;html=1;align=center;labelPosition=center;verticalLabelPosition=bottom;verticalAlign=top;shape=mxgraph.weblogos.mongodb" vertex="1" parent="hmCfqt4P9ejDFXZvc0nD-50">
          <mxGeometry x="20" width="41.2" height="86.2" as="geometry" />
        </mxCell>
        <mxCell id="hmCfqt4P9ejDFXZvc0nD-49" value="&lt;div style=&quot;text-align: center;&quot;&gt;&lt;/div&gt;&lt;span style=&quot;color: rgb(0, 0, 0); font-family: Helvetica; font-style: normal; font-variant-ligatures: normal; font-variant-caps: normal; letter-spacing: normal; orphans: 2; text-indent: 0px; text-transform: none; widows: 2; word-spacing: 0px; -webkit-text-stroke-width: 0px; background-color: rgb(251, 251, 251); text-decoration-thickness: initial; text-decoration-style: initial; text-decoration-color: initial; float: none; display: inline !important;&quot;&gt;&lt;div style=&quot;text-align: center;&quot;&gt;&lt;b style=&quot;font-size: 11px;&quot;&gt;Mongodb Altas&lt;/b&gt;&lt;/div&gt;&lt;/span&gt;" style="text;whiteSpace=wrap;html=1;" vertex="1" parent="hmCfqt4P9ejDFXZvc0nD-50">
          <mxGeometry y="78" width="90" height="22" as="geometry" />
        </mxCell>
        <mxCell id="hmCfqt4P9ejDFXZvc0nD-53" value="" style="group" vertex="1" connectable="0" parent="1">
          <mxGeometry x="150" y="110" width="140" height="120" as="geometry" />
        </mxCell>
        <mxCell id="hmCfqt4P9ejDFXZvc0nD-25" value="" style="group" vertex="1" connectable="0" parent="hmCfqt4P9ejDFXZvc0nD-53">
          <mxGeometry x="30" width="80" height="90.5" as="geometry" />
        </mxCell>
        <mxCell id="hmCfqt4P9ejDFXZvc0nD-16" value="" style="outlineConnect=0;dashed=0;verticalLabelPosition=bottom;verticalAlign=top;align=center;html=1;shape=mxgraph.aws3.rds;fillColor=#2E73B8;gradientColor=none;" vertex="1" parent="hmCfqt4P9ejDFXZvc0nD-25">
          <mxGeometry width="80" height="90.5" as="geometry" />
        </mxCell>
        <mxCell id="hmCfqt4P9ejDFXZvc0nD-15" value="" style="image;aspect=fixed;html=1;points=[];align=center;fontSize=12;image=img/lib/azure2/databases/Azure_Database_PostgreSQL_Server.svg;" vertex="1" parent="hmCfqt4P9ejDFXZvc0nD-25">
          <mxGeometry x="16" y="13.25" width="48" height="64" as="geometry" />
        </mxCell>
        <mxCell id="hmCfqt4P9ejDFXZvc0nD-52" value="&lt;div style=&quot;text-align: center;&quot;&gt;&lt;/div&gt;&lt;span style=&quot;color: rgb(0, 0, 0); font-family: Helvetica; font-style: normal; font-variant-ligatures: normal; font-variant-caps: normal; letter-spacing: normal; orphans: 2; text-indent: 0px; text-transform: none; widows: 2; word-spacing: 0px; -webkit-text-stroke-width: 0px; background-color: rgb(251, 251, 251); text-decoration-thickness: initial; text-decoration-style: initial; text-decoration-color: initial; float: none; display: inline !important; font-size: 11px;&quot;&gt;&lt;div style=&quot;text-align: center;&quot;&gt;&lt;b&gt;AWS RDS&lt;/b&gt;&lt;/div&gt;&lt;b&gt;&lt;div style=&quot;text-align: center;&quot;&gt;&lt;b&gt;PostgreSQL&lt;/b&gt;&lt;/div&gt;&lt;/b&gt;&lt;/span&gt;" style="text;whiteSpace=wrap;html=1;" vertex="1" parent="hmCfqt4P9ejDFXZvc0nD-53">
          <mxGeometry x="40" y="90.5" width="80" height="29.5" as="geometry" />
        </mxCell>
        <mxCell id="hmCfqt4P9ejDFXZvc0nD-59" value="Amazon ElastiCache for Redis" style="sketch=0;outlineConnect=0;fontColor=#232F3E;gradientColor=none;strokeColor=#ffffff;fillColor=#232F3E;dashed=0;verticalLabelPosition=middle;verticalAlign=bottom;align=center;html=1;whiteSpace=wrap;fontSize=10;fontStyle=1;spacing=3;shape=mxgraph.aws4.productIcon;prIcon=mxgraph.aws4.elasticache_for_redis;" vertex="1" parent="1">
          <mxGeometry x="170" y="280" width="80" height="120" as="geometry" />
        </mxCell>
        <mxCell id="hmCfqt4P9ejDFXZvc0nD-60" value="" style="group" vertex="1" connectable="0" parent="1">
          <mxGeometry x="610" y="110" width="130" height="90" as="geometry" />
        </mxCell>
        <mxCell id="hmCfqt4P9ejDFXZvc0nD-61" value="" style="rounded=1;whiteSpace=wrap;html=1;" vertex="1" parent="hmCfqt4P9ejDFXZvc0nD-60">
          <mxGeometry y="30" width="120" height="60" as="geometry" />
        </mxCell>
        <mxCell id="hmCfqt4P9ejDFXZvc0nD-62" value="" style="shape=image;html=1;verticalAlign=top;verticalLabelPosition=bottom;labelBackgroundColor=#ffffff;imageAspect=0;aspect=fixed;image=https://cdn2.iconfinder.com/data/icons/boxicons-logos/24/bxl-spring-boot-128.png;fontColor=#00CC00;" vertex="1" parent="hmCfqt4P9ejDFXZvc0nD-60">
          <mxGeometry x="10" y="35" width="50" height="50" as="geometry" />
        </mxCell>
        <mxCell id="hmCfqt4P9ejDFXZvc0nD-63" value="&lt;div style=&quot;text-align: center;&quot;&gt;&lt;span style=&quot;font-size: 11px;&quot;&gt;&lt;b&gt;Store&lt;/b&gt;&lt;/span&gt;&lt;/div&gt;" style="text;whiteSpace=wrap;html=1;" vertex="1" parent="hmCfqt4P9ejDFXZvc0nD-60">
          <mxGeometry x="20" width="110" height="40" as="geometry" />
        </mxCell>
        <mxCell id="hmCfqt4P9ejDFXZvc0nD-64" value="" style="sketch=0;pointerEvents=1;shadow=0;dashed=0;html=1;strokeColor=none;labelPosition=center;verticalLabelPosition=bottom;verticalAlign=top;outlineConnect=0;align=center;shape=mxgraph.office.security.lock_protected;fillColor=#7FBA42;" vertex="1" parent="hmCfqt4P9ejDFXZvc0nD-60">
          <mxGeometry x="70" y="35" width="40" height="47" as="geometry" />
        </mxCell>
        <mxCell id="hmCfqt4P9ejDFXZvc0nD-65" value="" style="group" vertex="1" connectable="0" parent="1">
          <mxGeometry x="520" y="230" width="130" height="90" as="geometry" />
        </mxCell>
        <mxCell id="hmCfqt4P9ejDFXZvc0nD-66" value="" style="rounded=1;whiteSpace=wrap;html=1;" vertex="1" parent="hmCfqt4P9ejDFXZvc0nD-65">
          <mxGeometry y="30" width="120" height="60" as="geometry" />
        </mxCell>
        <mxCell id="hmCfqt4P9ejDFXZvc0nD-67" value="" style="shape=image;html=1;verticalAlign=top;verticalLabelPosition=bottom;labelBackgroundColor=#ffffff;imageAspect=0;aspect=fixed;image=https://cdn2.iconfinder.com/data/icons/boxicons-logos/24/bxl-spring-boot-128.png;fontColor=#00CC00;" vertex="1" parent="hmCfqt4P9ejDFXZvc0nD-65">
          <mxGeometry x="10" y="35" width="50" height="50" as="geometry" />
        </mxCell>
        <mxCell id="hmCfqt4P9ejDFXZvc0nD-68" value="&lt;div style=&quot;text-align: center;&quot;&gt;&lt;span style=&quot;font-size: 11px;&quot;&gt;&lt;b&gt;Employee&lt;/b&gt;&lt;/span&gt;&lt;/div&gt;" style="text;whiteSpace=wrap;html=1;" vertex="1" parent="hmCfqt4P9ejDFXZvc0nD-65">
          <mxGeometry x="20" width="110" height="40" as="geometry" />
        </mxCell>
        <mxCell id="hmCfqt4P9ejDFXZvc0nD-69" value="" style="sketch=0;pointerEvents=1;shadow=0;dashed=0;html=1;strokeColor=none;labelPosition=center;verticalLabelPosition=bottom;verticalAlign=top;outlineConnect=0;align=center;shape=mxgraph.office.security.lock_protected;fillColor=#7FBA42;" vertex="1" parent="hmCfqt4P9ejDFXZvc0nD-65">
          <mxGeometry x="70" y="35" width="40" height="47" as="geometry" />
        </mxCell>
        <mxCell id="hmCfqt4P9ejDFXZvc0nD-70" value="" style="group" vertex="1" connectable="0" parent="1">
          <mxGeometry x="470" y="50" width="130" height="90" as="geometry" />
        </mxCell>
        <mxCell id="hmCfqt4P9ejDFXZvc0nD-71" value="" style="rounded=1;whiteSpace=wrap;html=1;" vertex="1" parent="hmCfqt4P9ejDFXZvc0nD-70">
          <mxGeometry y="30" width="120" height="60" as="geometry" />
        </mxCell>
        <mxCell id="hmCfqt4P9ejDFXZvc0nD-72" value="" style="shape=image;html=1;verticalAlign=top;verticalLabelPosition=bottom;labelBackgroundColor=#ffffff;imageAspect=0;aspect=fixed;image=https://cdn2.iconfinder.com/data/icons/boxicons-logos/24/bxl-spring-boot-128.png;fontColor=#00CC00;" vertex="1" parent="hmCfqt4P9ejDFXZvc0nD-70">
          <mxGeometry x="10" y="35" width="50" height="50" as="geometry" />
        </mxCell>
        <mxCell id="hmCfqt4P9ejDFXZvc0nD-73" value="&lt;div style=&quot;text-align: center;&quot;&gt;&lt;span style=&quot;font-size: 11px;&quot;&gt;&lt;b&gt;File&lt;/b&gt;&lt;/span&gt;&lt;/div&gt;" style="text;whiteSpace=wrap;html=1;" vertex="1" parent="hmCfqt4P9ejDFXZvc0nD-70">
          <mxGeometry x="20" width="110" height="40" as="geometry" />
        </mxCell>
        <mxCell id="hmCfqt4P9ejDFXZvc0nD-74" value="" style="sketch=0;pointerEvents=1;shadow=0;dashed=0;html=1;strokeColor=none;labelPosition=center;verticalLabelPosition=bottom;verticalAlign=top;outlineConnect=0;align=center;shape=mxgraph.office.security.lock_protected;fillColor=#7FBA42;" vertex="1" parent="hmCfqt4P9ejDFXZvc0nD-70">
          <mxGeometry x="70" y="35" width="40" height="47" as="geometry" />
        </mxCell>
        <mxCell id="hmCfqt4P9ejDFXZvc0nD-75" value="" style="group" vertex="1" connectable="0" parent="1">
          <mxGeometry x="640" y="140" width="130" height="90" as="geometry" />
        </mxCell>
        <mxCell id="hmCfqt4P9ejDFXZvc0nD-76" value="" style="rounded=1;whiteSpace=wrap;html=1;" vertex="1" parent="hmCfqt4P9ejDFXZvc0nD-75">
          <mxGeometry y="30" width="120" height="60" as="geometry" />
        </mxCell>
        <mxCell id="hmCfqt4P9ejDFXZvc0nD-77" value="" style="shape=image;html=1;verticalAlign=top;verticalLabelPosition=bottom;labelBackgroundColor=#ffffff;imageAspect=0;aspect=fixed;image=https://cdn2.iconfinder.com/data/icons/boxicons-logos/24/bxl-spring-boot-128.png;fontColor=#00CC00;" vertex="1" parent="hmCfqt4P9ejDFXZvc0nD-75">
          <mxGeometry x="10" y="35" width="50" height="50" as="geometry" />
        </mxCell>
        <mxCell id="hmCfqt4P9ejDFXZvc0nD-78" value="&lt;div style=&quot;text-align: center;&quot;&gt;&lt;span style=&quot;font-size: 11px;&quot;&gt;&lt;b&gt;Store&lt;/b&gt;&lt;/span&gt;&lt;/div&gt;" style="text;whiteSpace=wrap;html=1;" vertex="1" parent="hmCfqt4P9ejDFXZvc0nD-75">
          <mxGeometry x="20" width="110" height="40" as="geometry" />
        </mxCell>
        <mxCell id="hmCfqt4P9ejDFXZvc0nD-79" value="" style="sketch=0;pointerEvents=1;shadow=0;dashed=0;html=1;strokeColor=none;labelPosition=center;verticalLabelPosition=bottom;verticalAlign=top;outlineConnect=0;align=center;shape=mxgraph.office.security.lock_protected;fillColor=#7FBA42;" vertex="1" parent="hmCfqt4P9ejDFXZvc0nD-75">
          <mxGeometry x="70" y="35" width="40" height="47" as="geometry" />
        </mxCell>
      </root>
    </mxGraphModel>
  </diagram>
</mxfile>
